<svg viewBox="0 0 2588 328" xmlns="http://www.w3.org/2000/svg" xml:space="preserve" fill-rule="evenodd" clip-rule="evenodd" stroke-linejoin="round" stroke-miterlimit="2"><path d="M191.737 148.978c10.628-4.372 17.111-11.067 21.35-16.161 8.123-9.311 11.428-20.745 11.428-31.55 0-8.722-2.405-26.161-17.733-38.161-10.528-8.122-19.84-12.034-42.072-12.034h-11.267c-.361-.016-.689-.016-1.111-.016h-46.45v219.239h132.55v-42.078c0-40.272-12.984-67.339-46.695-79.239m16.667 109.233h-23.906v-73.183h-27.583v73.267h-21.139V61.978l21.711.017c8.117 0 20.45 1.8 29.156 12.622 4.539 5.483 7.322 12.767 8.305 20.072h-38.033v10.806h38.361c-.3 6.972-1.739 14.783-8.566 23.083-6.006 7.517-15.895 14.506-29.828 14.506h-.245v10.955c37.261 0 51.767 24.75 51.767 70.09v34.082Z" fill="#fff" fill-rule="nonzero"/><path d="M156.632 154.017v-10.95h.244c13.95 0 23.822-6.978 29.834-14.511 6.827-8.284 8.266-16.09 8.56-23.084h-38.36V94.667h38.033c-.967-7.3-3.767-14.583-8.3-20.072-8.711-10.823-21.039-12.623-29.161-12.623l-21.706-.016v196.322h21.134v-73.267h27.588v73.184h23.9v-34.106c0-45.316-14.488-70.072-51.766-70.072" fill="#002e6e" fill-rule="nonzero"/><path d="M163.72.006C73.316.006-.001 73.322-.001 163.728S73.315 327.45 163.721 327.45c90.405 0 163.722-73.316 163.722-163.722S254.126.006 163.721.006m74.705 270.289h-132.55V51.039h46.45c.428 0 .772 0 1.111.017h11.267c22.233 0 31.55 3.91 42.078 12.033 15.305 12.017 17.728 29.439 17.728 38.161 0 10.822-3.306 22.25-11.428 31.55-4.24 5.095-10.706 11.79-21.35 16.161 33.71 11.9 46.694 38.984 46.694 79.24v42.094ZM447.27 91.484h57.462V51.478h10.472v93.978h-10.472v-43.767h-57.461v43.767h-10.472V51.478h10.472v40.006Z" fill="#002e6e" fill-rule="nonzero"/><path fill="#002e6e" d="M548.482 51.478H538.01v93.978h10.472z"/><path d="M649.993 76.184c-6.844-9.934-18.26-16.512-31.683-16.512-21.883 0-38.4 17.317-38.4 38.795 0 21.483 16.517 38.8 38.4 38.8 12.217 0 22.955-5.639 29.667-14.5V107.6H615.62V97.395h42.828v29.133c-8.861 12.617-23.622 20.944-40.14 20.944-27.116 0-49.005-21.883-49.005-49.005 0-27.117 21.89-49 49.006-49 16.517 0 31.144 8.189 40.005 20.811l-8.322 5.906ZM687.716 91.484h57.46V51.478h10.473v93.978h-10.472v-43.767h-57.461v43.767h-10.473V51.478h10.473v40.006ZM825.06 145.456h-46.589V51.478h46.59v10.2h-36.118v29.806h32.761v10.205h-32.76v33.561h36.116v10.206ZM852.31 109.745v35.71h-10.472V51.479h26.989c16.378 0 30.072 12.622 30.072 29.267 0 13.966-10.339 25.377-24.033 27.522 7.783 3.089 13.827 27.255 26.983 27.255 1.211 0 2.422-.133 3.494-.538v10.472c-1.877.539-3.894.805-5.91.805-21.75 0-28.595-36.516-36.245-36.516H852.31Zm15.572-10.206c10.878 0 20.678-7.383 20.678-18.794 0-11.411-9.8-19.061-20.678-19.061H852.31v37.855h15.572ZM1018.244 119.145c0 15.305-13.028 28.327-33.028 28.327-13.428 0-22.961-5.238-32.895-15.172l6.445-7.916c8.46 8.188 15.978 13.155 26.45 13.155 14.094 0 22.422-8.728 22.422-18.261 0-24.7-52.228-7.517-52.228-44.572 0-15.167 11.817-25.24 29.406-25.24 13.96 0 22.15 5.24 32.083 14.634l-6.578 8.461c-8.594-8.594-14.9-13.294-25.644-13.294-11.545 0-19.195 6.044-19.195 15.439 0 25.239 52.762 8.189 52.762 44.439M1030.327 98.467c0-27.122 21.883-49.006 49-49.006 16.517 0 31.15 8.195 40.006 20.811l-8.323 5.912c-6.844-9.94-18.255-16.517-31.683-16.517-21.883 0-38.395 17.322-38.395 38.8 0 21.478 16.512 38.8 38.395 38.8 13.428 0 24.839-6.578 31.683-16.517l8.323 5.911c-8.856 12.617-23.49 20.806-40.006 20.806-27.117 0-49-21.883-49-49M1148.605 91.484h57.46V51.478h10.473v93.978h-10.472v-43.767h-57.461v43.767h-10.472V51.478h10.472v40.006ZM1285.405 49.467c26.983 0 48.061 21.883 48.061 49.005 0 27.117-21.078 49-48.061 49-27.117 0-48.061-21.883-48.061-49 0-27.122 20.944-49.005 48.06-49.005m0 87.8c21.884 0 37.456-17.317 37.456-38.795 0-21.483-15.572-38.8-37.455-38.8s-37.456 17.317-37.456 38.8c0 21.478 15.573 38.795 37.456 38.795M1396.3 49.467c26.983 0 48.06 21.883 48.06 49.005 0 27.117-21.077 49-48.06 49-27.123 0-48.062-21.883-48.062-49 0-27.122 20.94-49.005 48.061-49.005m0 87.8c21.884 0 37.456-17.317 37.456-38.795 0-21.483-15.572-38.8-37.456-38.8-21.883 0-37.455 17.317-37.455 38.8 0 21.478 15.572 38.795 37.455 38.795M1465.172 51.478h10.472v83.772h36.111v10.206h-46.583V51.478ZM1610.827 49.467c26.984 0 48.067 21.883 48.067 49.005 0 27.117-21.083 49-48.067 49-27.116 0-48.06-21.883-48.06-49 0-27.122 20.944-49.005 48.06-49.005m0 87.8c21.884 0 37.461-17.317 37.461-38.795 0-21.483-15.577-38.8-37.46-38.8-21.878 0-37.456 17.317-37.456 38.8 0 21.478 15.578 38.795 37.455 38.795M1679.7 51.478h46.589v10.2h-36.117v29.806h32.761v10.205h-32.761v43.767H1679.7V51.478ZM1825.9 145.456h-46.584V51.478h46.584v10.2h-36.111v29.806h32.755v10.205h-32.755v33.561h36.11v10.206ZM1840.666 98.467c0-27.122 21.884-49.006 49-49.006 16.517 0 31.15 8.195 40.012 20.811l-8.328 5.912c-6.845-9.94-18.256-16.517-31.684-16.517-21.883 0-38.394 17.322-38.394 38.8 0 21.478 16.511 38.8 38.394 38.8 13.428 0 24.84-6.578 31.684-16.517l8.328 5.911c-8.862 12.617-23.495 20.806-40.012 20.806-27.116 0-49-21.883-49-49M1990.494 49.467c26.984 0 48.061 21.883 48.061 49.005 0 27.117-21.077 49-48.06 49-27.117 0-48.062-21.883-48.062-49 0-27.122 20.945-49.005 48.061-49.005m0 87.8c21.884 0 37.456-17.317 37.456-38.795 0-21.483-15.572-38.8-37.456-38.8-21.883 0-37.455 17.317-37.455 38.8 0 21.478 15.572 38.795 37.455 38.795M2127.294 127.334V51.478h10.473v93.978h-10.473l-57.46-75.717v75.717h-10.473V51.478h10.472l57.461 75.856ZM2206.644 49.467c26.984 0 48.062 21.883 48.062 49.005 0 27.117-21.078 49-48.062 49-27.116 0-48.06-21.883-48.06-49 0-27.122 20.944-49.005 48.06-49.005m0 87.8c21.884 0 37.456-17.317 37.456-38.795 0-21.483-15.572-38.8-37.456-38.8-21.883 0-37.455 17.317-37.455 38.8 0 21.478 15.572 38.795 37.455 38.795M2278.589 51.478h4.294l36.923 74.911 37.322-74.911h4.294l8.462 93.978h-10.612l-5.633-63.234-31.417 63.234h-4.427l-31.417-63.234-5.639 63.234h-10.606l8.456-93.978Z" fill="#002e6e" fill-rule="nonzero"/><path fill="#002e6e" d="M2400.478 51.478h-10.472v93.978h10.472z"/><path d="M2421.311 98.467c0-27.122 21.884-49.006 49-49.006 16.517 0 31.15 8.195 40.012 20.811L2502 76.184c-6.844-9.94-18.26-16.517-31.689-16.517-21.877 0-38.394 17.322-38.394 38.8 0 21.478 16.517 38.8 38.394 38.8 13.428 0 24.845-6.578 31.69-16.517l8.322 5.911c-8.862 12.617-23.495 20.806-40.012 20.806-27.116 0-49-21.883-49-49M2587.645 119.145c0 15.305-13.022 28.327-33.022 28.327-13.428 0-22.962-5.238-32.895-15.172l6.445-7.916c8.455 8.188 15.977 13.155 26.45 13.155 14.094 0 22.416-8.728 22.416-18.261 0-24.7-52.222-7.517-52.222-44.572 0-15.167 11.811-25.24 29.4-25.24 13.967 0 22.156 5.24 32.089 14.634l-6.583 8.461c-8.59-8.594-14.9-13.294-25.64-13.294-11.55 0-19.2 6.044-19.2 15.439 0 25.239 52.762 8.189 52.762 44.439M469.77 262.206V225.21h5.106v45.834h-5.105l-28.022-36.928v36.928h-5.111V225.21h5.11l28.023 36.995ZM494.204 271.045l19.19-45.834h1.632l19.184 45.834h-5.695l-5.439-13.228h-17.805l-5.372 13.228h-5.695Zm13.161-18.334h13.617l-6.806-16.694-6.81 16.694ZM559.365 271.045v-40.856h-15.65v-4.978h36.406v4.978h-15.65v40.856h-5.106Z" fill="#002e6e" fill-rule="nonzero"/><path fill="#002e6e" d="M599.771 225.211h5.106v45.834h-5.106z"/><path d="M650.26 224.228c13.161 0 23.444 10.672 23.444 23.9 0 13.228-10.283 23.9-23.444 23.9-13.228 0-23.439-10.672-23.439-23.9 0-13.228 10.211-23.9 23.439-23.9m0 42.822c10.672 0 18.272-8.444 18.272-18.922s-7.6-18.922-18.272-18.922c-10.672 0-18.267 8.444-18.267 18.922s7.595 18.922 18.267 18.922M728.782 262.206V225.21h5.106v45.834h-5.106l-28.022-36.928v36.928h-5.111V225.21h5.111l28.022 36.995ZM753.21 271.045l19.189-45.834h1.639l19.183 45.834h-5.7l-5.433-13.228h-17.811l-5.367 13.228h-5.7Zm13.161-18.334h13.622l-6.81-16.694-6.812 16.694ZM812.543 225.211h5.106v40.856h17.611v4.978h-22.717V225.21ZM889.821 253.628v17.417h-5.105V225.21h13.155c7.99 0 14.667 6.156 14.667 14.273 0 6.81-5.039 12.377-11.717 13.422 3.795 1.511 6.745 13.294 13.161 13.294.59 0 1.178-.066 1.7-.26v5.105c-.916.26-1.9.394-2.877.394-10.606 0-13.95-17.81-17.684-17.81h-5.3Zm7.595-4.978c5.305 0 10.083-3.6 10.083-9.166 0-5.567-4.778-9.295-10.083-9.295h-7.595v18.461h7.595ZM958.382 271.045H935.66V225.21h22.722v4.978h-17.61v14.534h15.971v4.977h-15.972v16.367h17.611v4.978ZM1007.566 258.211c0 7.467-6.356 13.817-16.106 13.817-6.55 0-11.2-2.555-16.044-7.4l3.144-3.861c4.122 3.989 7.79 6.417 12.9 6.417 6.872 0 10.934-4.261 10.934-8.906 0-12.05-25.473-3.667-25.473-21.739 0-7.4 5.761-12.31 14.34-12.31 6.81 0 10.805 2.555 15.65 7.138l-3.206 4.122c-4.195-4.189-7.273-6.483-12.511-6.483-5.628 0-9.362 2.95-9.362 7.533 0 12.311 25.734 3.995 25.734 21.672M1050.26 271.045h-22.716V225.21h22.716v4.978h-17.61v14.534h15.977v4.977h-15.978v16.367h17.611v4.978ZM1066.644 271.045l19.183-45.834h1.639l19.183 45.834h-5.694l-5.44-13.228h-17.805l-5.372 13.228h-5.694Zm13.16-18.334h13.617l-6.81-16.694-6.806 16.694ZM1131.077 253.628v17.417h-5.106V225.21h13.162c7.988 0 14.666 6.156 14.666 14.273 0 6.81-5.044 12.377-11.722 13.422 3.8 1.511 6.744 13.294 13.161 13.294.589 0 1.183-.066 1.706-.26v5.105c-.917.26-1.9.394-2.884.394-10.605 0-13.95-17.81-17.677-17.81h-5.306Zm7.6-4.978c5.3 0 10.078-3.6 10.078-9.166 0-5.567-4.778-9.295-10.078-9.295h-7.6v18.461h7.6ZM1175.938 248.128c0-13.228 10.672-23.9 23.9-23.9 8.056 0 15.195 3.995 19.511 10.15l-4.055 2.878c-3.34-4.845-8.906-8.05-15.456-8.05-10.672 0-18.722 8.444-18.722 18.922s8.05 18.922 18.722 18.922c6.55 0 12.117-3.205 15.456-8.05l4.055 2.878c-4.316 6.156-11.455 10.15-19.51 10.15-13.229 0-23.9-10.672-23.9-23.9M1245.422 244.723h28.022V225.21h5.11v45.834h-5.11V249.7h-28.022v21.345h-5.106V225.21h5.106v19.512ZM1369.516 252.845c0 11.328-8.056 19.183-19.444 19.183-11.395 0-19.445-7.855-19.445-19.183V225.21h5.1v27.634c0 8.644 6.356 14.205 14.345 14.205 7.983 0 14.338-5.56 14.338-14.205V225.21h5.106v27.634ZM1425.25 262.206V225.21h5.105v45.834h-5.106l-28.022-36.928v36.928h-5.11V225.21h5.11l28.022 36.995Z" fill="#002e6e" fill-rule="nonzero"/><path fill="#002e6e" d="M1453.283 225.211h5.11v45.834h-5.11z"/><path d="m1483.405 225.211 14.278 35.028 14.339-35.028h5.694l-19.183 45.834h-1.64l-19.182-45.834h5.694ZM1559.76 271.045h-22.722V225.21h22.723v4.978h-17.611v14.534h15.977v4.977h-15.977v16.367h17.61v4.978ZM1584.85 253.628v17.417h-5.106V225.21h13.161c7.989 0 14.667 6.156 14.667 14.273 0 6.81-5.045 12.377-11.722 13.422 3.8 1.511 6.744 13.294 13.16 13.294.59 0 1.178-.066 1.7-.26v5.105c-.91.26-1.9.394-2.877.394-10.606 0-13.95-17.81-17.678-17.81h-5.305Zm7.594-4.978c5.306 0 10.083-3.6 10.083-9.166 0-5.567-4.777-9.295-10.083-9.295h-7.594v18.461h7.594ZM1659.894 258.211c0 7.467-6.356 13.817-16.106 13.817-6.55 0-11.2-2.555-16.044-7.4l3.144-3.861c4.123 3.989 7.79 6.417 12.9 6.417 6.873 0 10.934-4.261 10.934-8.906 0-12.05-25.472-3.667-25.472-21.739 0-7.4 5.76-12.31 14.338-12.31 6.812 0 10.806 2.555 15.65 7.138l-3.205 4.122c-4.195-4.189-7.272-6.483-12.506-6.483-5.633 0-9.366 2.95-9.366 7.533 0 12.311 25.733 3.995 25.733 21.672" fill="#002e6e" fill-rule="nonzero"/><path fill="#002e6e" d="M1679.872 225.211h5.111v45.834h-5.111z"/><path d="M1720.277 271.045v-40.856h-15.65v-4.978h36.406v4.978h-15.65v40.856h-5.106ZM1756.427 225.211h5.762l12.377 24.095 12.373-24.095h5.76l-15.583 30.25v15.584h-5.105V255.46l-15.584-30.25Z" fill="#002e6e" fill-rule="nonzero"/></svg>